<svg width="28" height="28" viewBox="0 0 28 28" fill="none" xmlns="http://www.w3.org/2000/svg">
<path d="M23.4323 10.8948C23.0275 9.81519 22.4876 8.73553 21.8129 7.65588C18.304 2.93238 11.5561 1.85273 6.83263 5.36161C2.10914 8.87049 1.02949 15.6183 4.53837 20.3418C8.04725 25.0653 14.7951 26.145 19.5186 22.6361C21.8129 21.0166 23.1624 18.5874 23.7022 16.0232" stroke="#333333" stroke-miterlimit="10"/>
<path d="M25.0516 9.40918L23.5671 11.8384L21.0029 10.3539" stroke="#333333" stroke-miterlimit="10"/>
<path d="M8.99077 11.1638L7.50624 11.9736L7.23633 11.0289L9.12573 10.0842H10.0704V18.4515H8.99077V11.1638ZM18.7077 14.1329C18.7077 16.967 17.628 18.5865 15.7386 18.5865C14.1191 18.5865 13.0395 17.1019 12.9045 14.2678C12.9045 11.4337 14.1191 9.94922 15.8736 9.94922C17.763 9.94922 18.7077 11.4337 18.7077 14.1329ZM14.1191 14.2678C14.1191 16.4272 14.7939 17.6418 15.8736 17.6418C17.0882 17.6418 17.628 16.2922 17.628 14.1329C17.628 12.1085 17.0882 10.759 15.8736 10.759C14.7939 10.759 14.1191 11.9736 14.1191 14.2678Z" fill="#333333"/>
</svg>
